<svg xmlns="http://www.w3.org/2000/svg" width="20mm" height="20mm" viewBox="0 0 20 20">
  <g transform="translate(3 4) scale(2)">
    <path id="profile" d="M 0 0 Q 2 -2 4 0 C 4 2 0 2 0 0 Z"/>
    <path id="relative" d="m 0 0 q 2 -2 4 0 c 0 2 -4 2 -4 0 z"/>
    <path id="arc" d="M 0 0 A 2 2 0 0 1 4 0 L 0 0 Z"/>
    <path id="stroke" stroke="black" d="M 0 0 Q 2 -2 4 0 C 4 2 0 2 0 0 Z"/>
    <path id="open-stroke" fill="none" stroke="black" stroke-width="2" stroke-linecap="round" d="M 0 0 L 4 0"/>
    <path id="curved-stroke" fill="none" stroke="black" stroke-width="2" stroke-linecap="round" d="M 0 0 Q 2 -2 4 0"/>
    <path id="joined-stroke" fill="none" stroke="black" stroke-width="2" stroke-linecap="butt" stroke-linejoin="round" d="M 0 0 L 2 -2 L 4 0"/>
    <path id="miter-stroke" fill="none" stroke="black" stroke-width="2" stroke-linecap="butt" stroke-linejoin="miter" d="M 0 0 L 2 -2 L 4 0"/>
    <path id="bevel-stroke" fill="none" stroke="black" stroke-width="2" stroke-linecap="butt" stroke-linejoin="bevel" d="M 0 0 L 2 -2 L 4 0"/>
    <path id="closed-stroke" fill="none" stroke="black" stroke-width="2" stroke-linecap="butt" stroke-linejoin="round" d="M 0 0 L 4 0 L 2 -2 Z"/>
    <path id="square-stroke" fill="none" stroke="black" stroke-width="2" stroke-linecap="square" d="M 0 0 L 4 0"/>
    <g fill="none" stroke="black" stroke-width="2" stroke-linecap="square" stroke-linejoin="miter">
      <path id="inherited-stroke" d="M 0 0 L 2 -2 L 4 0"/>
    </g>
    <g fill="none" stroke="black" stroke-width="2" stroke-linecap="butt" stroke-linejoin="miter" stroke-miterlimit="1">
      <path id="limited-miter-stroke" d="M 0 0 L 2 -2 L 4 0"/>
    </g>
    <circle id="circle" cx="2" cy="0" r="2"/>
    <ellipse id="ellipse" cx="2" cy="0" rx="2" ry="1"/>
    <rect id="rect" x="0" y="0" width="4" height="2"/>
    <rect id="rounded" x="0" y="0" width="4" height="2" rx="0.5"/>
    <polygon id="polygon" points="0,0 4,0 4,2 0,2"/>
    <path id="zeroarc" d="M0 0 A0 2 0 0 1 4 0 L4 2 L0 2 Z"/>
    <path id="self-intersecting" fill-rule="evenodd" d="M0 0 L4 4 L0 4 L4 0 Z"/>
    <path id="self-intersecting-nonzero" d="M0 0 L4 4 L0 4 L4 0 Z"/>
    <path id="ring" d="M0 0 A2 2 0 1 0 4 0 A2 2 0 1 0 0 0 Z M1 0 A1 1 0 1 1 3 0 A1 1 0 1 1 1 0 Z"/>
    <path id="evenodd" fill-rule="nonzero" style="fill-rule:evenodd" d="M0 0 A2 2 0 1 0 4 0 A2 2 0 1 0 0 0 Z M1 0 A1 1 0 1 0 3 0 A1 1 0 1 0 1 0 Z"/>
    <g fill-rule="evenodd">
      <path id="inherited" d="M0 0 A2 2 0 1 0 4 0 A2 2 0 1 0 0 0 Z M1 0 A1 1 0 1 0 3 0 A1 1 0 1 0 1 0 Z"/>
      <path id="nonzero" fill-rule="nonzero" d="M0 0 A2 2 0 1 0 4 0 A2 2 0 1 0 0 0 Z M1 0 A1 1 0 1 0 3 0 A1 1 0 1 0 1 0 Z"/>
    </g>
    <g id="group-overlap" fill-rule="evenodd">
      <circle cx="2" cy="0" r="2"/>
      <circle cx="2" cy="0" r="2"/>
    </g>
  </g>
  <rect id="excluded" x="15" y="15" width="2" height="2"/>
</svg>
